<svg id="icons" xmlns="http://www.w3.org/2000/svg" viewBox="0 0 28.32881 26.04099"><defs><style>.cls-1{fill:#4d4d4e;}</style></defs><title>api services</title><g id="API_Services" data-name="API Services"><path class="cls-1" d="M130.104,53.77942a4.48588,4.48588,0,0,0-1.37506.21625l-1.26843-2.86017a3.07615,3.07615,0,1,0-.43469.18115l1.26288,2.84766a4.51614,4.51614,0,0,0-2.63092,3.412l-1.3443-.19854-.069.46582,1.36389.20135c-.0044.08081-.01227.16065-.01227.24243a4.51182,4.51182,0,0,0,3.34363,4.34986l-.79529,2.54266a2.97915,2.97915,0,0,0-2.02124.25067,3.088,3.088,0,1,0,2.4718-.11273l.80786-2.58276a4.47011,4.47011,0,0,0,5.197-4.21234h1.67182v-.47089h-1.67182A4.50961,4.50961,0,0,0,130.104,53.77942Zm-3.03485-2.979a2.64944,2.64944,0,0,1-1.65973.11779,2.63814,2.63814,0,1,1,1.72565-.147Zm2.968,16.80377a2.637,2.637,0,0,1-3.166,3.166,2.61032,2.61032,0,0,1-1.962-1.962,2.637,2.637,0,0,1,3.166-3.166A2.61,2.61,0,0,1,130.03717,67.60419Zm1.14209-5.42414a4.06648,4.06648,0,0,1-1.875.0644l-.22-.06885-.004.01269a4.033,4.033,0,0,1-.60126-7.59491l.0033.00745.19263-.08539a4.11164,4.11164,0,0,1,.6795-.19214A3.8865,3.8865,0,1,0,133.181,60.894,4.009,4.009,0,0,1,131.17926,62.18005Z" transform="translate(-115.78457 -45.26683)"/><path class="cls-1" d="M140.831,55.19092a3.1045,3.1045,0,0,0-2.90893,2.8609h-.84748v.47089h.84748a3.1001,3.1001,0,0,0,6.19092-.28608A3.18741,3.18741,0,0,0,140.831,55.19092Zm.78278,5.66034a2.637,2.637,0,0,1-3.166-3.16584,2.61017,2.61017,0,0,1,1.96186-1.962,2.637,2.637,0,0,1,3.16613,3.16595A2.61016,2.61016,0,0,1,141.61377,60.85126Z" transform="translate(-115.78457 -45.26683)"/><path class="cls-1" d="M121.98779,56.881a3.105,3.105,0,0,0-3.14752-3.10125,3.1435,3.1435,0,0,0-3.05536,3.05517,3.10168,3.10168,0,0,0,6.14044.66589l1.73609.25647.069-.46582L121.9801,57.033C121.9826,56.9823,121.98779,56.93231,121.98779,56.881Zm-.53766.602a2.61008,2.61008,0,0,1-1.96191,1.96192,2.637,2.637,0,0,1-3.16608-3.16584,2.61017,2.61017,0,0,1,1.96186-1.962A2.637,2.637,0,0,1,121.45013,57.48309Z" transform="translate(-115.78457 -45.26683)"/><path class="cls-1" d="M117.13245,57.16412c-.00293-.02539-.00287-.05053-.00483-.07586l-.18078-.02753c.00244.04126.00317.08221.00793.12378a2.16938,2.16938,0,0,0,1.31909,1.74774l.101-.15118A1.99184,1.99184,0,0,1,117.13245,57.16412Z" transform="translate(-115.78457 -45.26683)"/><path class="cls-1" d="M142.65063,57.34808l-.14892.09742a1.98912,1.98912,0,0,1-.13074,2.41735l.16742.07251a2.15291,2.15291,0,0,0,.11224-2.58728Z" transform="translate(-115.78457 -45.26683)"/></g></svg>