<svg id="icons" xmlns="http://www.w3.org/2000/svg" viewBox="0 0 22.21403 22.36489"><defs><style>.cls-1{fill:#4d4d4e;}</style></defs><title>contracting</title><g id="Contracting"><path class="cls-1" d="M186.57238,266.73937a1.2513,1.2513,0,0,1-1.25,1.25H172.4741a1.25159,1.25159,0,0,1-1.2503-1.25V247.94258a1.25187,1.25187,0,0,1,1.2503-1.25029h9.11335v3.11a1.87532,1.87532,0,0,0,1.8753,1.8753h3.10963v2.755l.53393-.5471v-2.28633l-.53393-.53393v.00019l-4.3731-4.37314h.00007l-.53392-.53393H172.4741a1.78641,1.78641,0,0,0-1.78422,1.78422v18.79679a1.7861,1.7861,0,0,0,1.78422,1.78388h12.84832a1.78579,1.78579,0,0,0,1.78389-1.78388v-6.214l-.53393.53738Z" transform="translate(-170.68988 -246.15836)"/><path class="cls-1" d="M192.19021,255.62314c-.144.04484-.25124.20716-.39.33023-.22092-.23081-.40468-.42287-.60067-.62742.33216-.38391.66541-.71031.92829-1.08589a1.30064,1.30064,0,0,0-.07511-1.7917,1.4303,1.4303,0,0,0-1.04106-.52458,1.5573,1.5573,0,0,0-.83361.27672,6.6364,6.6364,0,0,0-1.07093.88343c-1.32408,1.30558-2.629,2.63063-3.9479,3.94142-.60223.59858-1.2205,1.181-1.77585,1.71714.74573.76857,1.42847,1.47226,2.1633,2.22967,1.641-1.66583,3.282-3.33156,4.94222-5.01689.25367.24.458.43329.7278.68843-.99329.97778-1.95637,1.926-2.91989,2.87395-.236.23219-.4446.48351-.12668.78576a.4192.4192,0,0,0,.28919.13561.72475.72475,0,0,0,.45925-.27152q.90252-.9054,1.80439-1.81171c.69714-.6999,1.412-1.38361,2.07669-2.113.13278-.14584.07448-.46562.10424-.70529A3.654,3.654,0,0,0,192.19021,255.62314Zm-1.45161-.696-.20229.23379-.06239-.059-.41926.42562-1.90562,1.93438-2.599,2.63833-1.30246-1.34238.08684-.08338c.40839-.39113.83532-.8,1.25457-1.21674q.83683-.83169,1.66867-1.66847,1.13556-1.13886,2.27748-2.27124a5.96509,5.96509,0,0,1,.97026-.80324.98026.98026,0,0,1,.50628-.18141h0c.07035,0,.28446,0,.59691.3325.21951.23349.37383.51926.0199,1.02465a7.10668,7.10668,0,0,1-.56607.67433C190.95591,254.68194,190.8472,254.80155,190.7386,254.92712Z" transform="translate(-170.68988 -246.15836)"/><path class="cls-1" d="M175.24908,264.92925c-.1205.46353-.31653.99433.17583,1.33531a.671.671,0,0,0,.38849.13148,1.61354,1.61354,0,0,0,.85965-.43407,1.20718,1.20718,0,0,1,.68576-.28614.80813.80813,0,0,1,.63084.3607.64611.64611,0,0,0,.37882.145c.02314,0,.03936-.00365.04505-.01154.37841-.52629,1.022-.46665,1.52353-.70685a17.50889,17.50889,0,0,0,4.97567-3.91623c-.72489-.706-1.42772-1.39056-2.16787-2.11133-1.72663,1.74531-3.55554,3.49687-4.26064,6.10993a1.58186,1.58186,0,0,0-1.13686-.55955,2.27759,2.27759,0,0,0-1.44555.71008c-.04937-.02905-.0987-.05789-.14807-.08709q.19794-.55735.396-1.1151a1.14251,1.14251,0,0,0-.29685-1.4175,1.03944,1.03944,0,0,0-.584-.17824,1.14773,1.14773,0,0,0-.88338.4351,8.63268,8.63268,0,0,0-1.001,1.61182c-.13405.26211-.51629.6775-.01228.88328a.50211.50211,0,0,0,.18673.04315c.30876,0,.28216-.46807.43064-.6817.33793-.486.64163-.99656.99724-1.4688a.4262.4262,0,0,1,.29927-.09595.289.289,0,0,1,.15816.03549.52886.52886,0,0,1,.11027.4581C175.48861,264.39726,175.32133,264.65133,175.24908,264.92925Zm7.50336-4.63536,1.04939,1.022.24961.24309a15.99013,15.99013,0,0,1-4.37769,3.35441,2.18387,2.18387,0,0,1-.38774.12374A13.7612,13.7612,0,0,1,182.75244,260.29389Z" transform="translate(-170.68988 -246.15836)"/><path class="cls-1" d="M173.413,253.38041h6.06979a.26694.26694,0,1,0,0-.53388H173.413a.26694.26694,0,0,0,0,.53388Z" transform="translate(-170.68988 -246.15836)"/><path class="cls-1" d="M184.18924,256.448a.267.267,0,0,0-.26694-.267H173.413a.267.267,0,0,0,0,.53392H183.9223A.267.267,0,0,0,184.18924,256.448Z" transform="translate(-170.68988 -246.15836)"/><path class="cls-1" d="M180.68512,259.96812a.26694.26694,0,1,0,0-.53388H173.413a.26694.26694,0,1,0,0,.53388Z" transform="translate(-170.68988 -246.15836)"/></g></svg>