<svg id="icons" xmlns="http://www.w3.org/2000/svg" viewBox="0 0 22.37158 22.19434"><defs><style>.cls-1{fill:#4d4d4e;}</style></defs><title>databank</title><g id="Databank"><path class="cls-1" d="M189.14111,387.127h-9.69482v-9.6416l-.376.001a10.05763,10.05763,0,1,0,10.084,10.01074l-.375.00488.375-.01367Zm-10.043,9.72461a9.30756,9.30756,0,0,1-.40185-18.60644V387.877h9.70361A9.31943,9.31943,0,0,1,179.09814,396.85156Z" transform="translate(-169.04053 -375.40723)"/><path class="cls-1" d="M191.40332,385.05176a9.84547,9.84547,0,0,0-9.70752-9.63867l-.38135-.00586v10.02832h10.09766Zm-9.33887-.36621v-8.50879a9.09563,9.09563,0,0,1,8.57227,8.50879Z" transform="translate(-169.04053 -375.40723)"/></g></svg>