<svg id="icons" xmlns="http://www.w3.org/2000/svg" viewBox="0 0 20.14603 21.05319"><defs><style>.cls-1{fill:#4d4d4e;}</style></defs><title>download</title><g id="Download"><path class="cls-1" d="M139.272,264.63526v1.82629H120.626v-1.82629h18.646m.75-.75H119.876v3.32629h20.146v-3.32629Z" transform="translate(-119.87595 -246.15836)"/><path class="cls-1" d="M130.87137,246.90836v11.87607l4.47968-5.33307,1.416,1.17087-6.80648,8.09894-.00147.00519-.00143-.00174-.00144.00174-.00152-.00531-6.79425-8.09882,1.41595-1.17087,4.45023,5.3089v-11.8519h1.84478m.75-.75h-3.34478v10.53971l-3.12546-3.72852-.47858-.57092-.57413.47473-1.416,1.17087-.58209.48135.48544.57867,6.69171,7.9766.34769,1.21463.32849-.39435.33481.40735.34943-1.22766,6.70321-7.97605.48639-.57876-.58261-.48178-1.416-1.17087-.57355-.47428-.47867.56989-3.1554,3.7565V246.15836Z" transform="translate(-119.87595 -246.15836)"/></g></svg>