<svg id="icons" xmlns="http://www.w3.org/2000/svg" viewBox="0 0 23.08145 22.11711"><defs><style>.cls-1{fill:#4d4d4e;}</style></defs><title>entities 1</title><g id="Entities_1" data-name="Entities 1"><path class="cls-1" d="M265.747,172.13205h1.91066v-2.95291H265.747Zm.50781-2.4451h.895v1.93728h-.895Z" transform="translate(-250.11959 -166.72207)"/><path class="cls-1" d="M255.66288,177.17414h1.91067v-2.9529h-1.91067Zm.50782-2.44509h.895v1.93728h-.895Z" transform="translate(-250.11959 -166.72207)"/><path class="cls-1" d="M255.66288,186.34156h1.91067v-2.9529h-1.91067Zm.50782-2.44509h.895v1.93728h-.895Z" transform="translate(-250.11959 -166.72207)"/><path class="cls-1" d="M255.66288,181.75785h1.91067V178.805h-1.91067Zm.50782-2.44509h.895V181.25h-.895Z" transform="translate(-250.11959 -166.72207)"/><path class="cls-1" d="M272.69323,187.04481h-2.0139V166.72207H252.64125v20.32274h-2.52166v1.79437H273.201v-1.79437Zm0,1.28656H250.6274v-.77875h2.52167V167.22988h17.02245v20.32274h2.52171Z" transform="translate(-250.11959 -166.72207)"/><path class="cls-1" d="M260.70494,172.13205h1.91066v-2.95291h-1.91066Zm.50781-2.4451h.895v1.93728h-.895Z" transform="translate(-250.11959 -166.72207)"/><path class="cls-1" d="M255.66288,172.13205h1.91067v-2.95291h-1.91067Zm.50782-2.4451h.895v1.93728h-.895Z" transform="translate(-250.11959 -166.72207)"/><path class="cls-1" d="M265.747,181.75785h1.91066V178.805H265.747Zm.50781-2.44509h.895V181.25h-.895Z" transform="translate(-250.11959 -166.72207)"/><path class="cls-1" d="M265.747,186.34156h1.91066v-2.9529H265.747Zm.50781-2.44509h.895v1.93728h-.895Z" transform="translate(-250.11959 -166.72207)"/><path class="cls-1" d="M260.70494,177.17414h1.91066v-2.9529h-1.91066Zm.50781-2.44509h.895v1.93728h-.895Z" transform="translate(-250.11959 -166.72207)"/><path class="cls-1" d="M265.747,177.17414h1.91066v-2.9529H265.747Zm.50781-2.44509h.895v1.93728h-.895Z" transform="translate(-250.11959 -166.72207)"/><path class="cls-1" d="M260.70494,181.75785h1.91066V178.805h-1.91066Zm.50781-2.44509h.895V181.25h-.895Z" transform="translate(-250.11959 -166.72207)"/><path class="cls-1" d="M260.70494,186.34156h1.91066v-2.9529h-1.91066Zm.50781-2.44509h.895v1.93728h-.895Z" transform="translate(-250.11959 -166.72207)"/></g></svg>