<svg id="icons" xmlns="http://www.w3.org/2000/svg" viewBox="0 0 21.17637 22.76648"><defs><style>.cls-1{fill:#4d4d4e;}</style></defs><title>entities 3</title><g id="Entities_3" data-name="Entities 3"><path class="cls-1" d="M334.11737,171.11021h1.66682v-2.576h-1.66682Zm.443-2.133h.78081v1.69h-.78081Z" transform="translate(-331.48137 -166.39067)"/><path class="cls-1" d="M334.11737,175.50882h1.66682v-2.576h-1.66682Zm.443-2.133h.78081v1.69h-.78081Z" transform="translate(-331.48137 -166.39067)"/><path class="cls-1" d="M334.11737,183.50627h1.66682v-2.57605h-1.66682Zm.443-2.133h.78081v1.69h-.78081Z" transform="translate(-331.48137 -166.39067)"/><path class="cls-1" d="M334.11737,179.50755h1.66682V176.9315h-1.66682Zm.443-2.133h.78081v1.69h-.78081Z" transform="translate(-331.48137 -166.39067)"/><path class="cls-1" d="M342.91456,175.50882h1.66682v-2.576h-1.66682Zm.443-2.133h.78081v1.69h-.78081Z" transform="translate(-331.48137 -166.39067)"/><path class="cls-1" d="M344.58138,168.53416h-1.66682v2.576h1.66682Zm-.443,2.133h-.78081v-1.69h.78081Z" transform="translate(-331.48137 -166.39067)"/><path class="cls-1" d="M338.51595,175.50882h1.66682v-2.576h-1.66682Zm.443-2.133h.78082v1.69H338.959Z" transform="translate(-331.48137 -166.39067)"/><path class="cls-1" d="M340.18277,168.53416h-1.66682v2.576h1.66682Zm-.443,2.133H338.959v-1.69h.78082Z" transform="translate(-331.48137 -166.39067)"/><polygon class="cls-1" points="15.293 9.044 15.736 9.321 15.736 0.443 15.736 0 15.293 0 0.443 0 0 0 0 0.443 0 19.931 0 20.374 0.443 20.374 0.443 19.931 0.443 18.943 0.443 0.443 15.293 0.443 15.293 9.044"/><polygon class="cls-1" points="20.194 14.248 14.513 10.587 14.327 10.466 14.141 10.587 8.46 14.248 7.478 14.881 8.119 14.881 8.651 14.537 8.647 14.537 9.911 13.722 9.925 13.713 9.925 13.713 14.327 10.876 18.925 13.84 20.586 14.881 21.176 14.881 20.194 14.248"/><polygon class="cls-1" points="19.073 15.872 19.073 22.071 19.073 22.514 19.516 22.514 19.516 22.071 19.516 16.143 19.073 15.865 19.073 15.872"/><polygon class="cls-1" points="9.138 22.071 9.138 22.514 9.524 22.514 9.524 22.071 9.524 15.92 9.138 16.168 9.138 22.071"/><path class="cls-1" d="M342.741,185.103h1.66682v-2.57605H342.741Zm.443-2.133h.78081v1.69h-.78081Z" transform="translate(-331.48137 -166.39067)"/><path class="cls-1" d="M347.13962,185.103h1.66682v-2.57605h-1.66682Zm.443-2.133h.78081v1.69h-.78081Z" transform="translate(-331.48137 -166.39067)"/><polygon class="cls-1" points="18.818 10.187 17.167 10.187 17.167 11.554 18.818 12.611 18.818 10.187"/><rect class="cls-1" x="13.3081" y="19.57683" width="1.9685" height="3.18965"/><polygon class="cls-1" points="7.478 12.674 7.478 10.984 8.258 10.984 8.258 12.339 8.701 12.056 8.701 10.541 7.035 10.541 7.035 13.117 7.041 13.117 7.735 12.674 7.478 12.674"/></g></svg>