<svg id="icons" xmlns="http://www.w3.org/2000/svg" viewBox="0 0 19.42899 22.06581"><defs><style>.cls-1{fill:#4d4d4e;}</style></defs><title>entities 2</title><g id="Entities_2" data-name="Entities 2"><path class="cls-1" d="M300.48018,182.0222a1.68029,1.68029,0,1,0-2.2825,1.56719l-.00147.01467v.86725a.60081.60081,0,1,0,1.20162,0v-.86725l-.0013-.01261A1.67935,1.67935,0,0,0,300.48018,182.0222Zm-1.68029.749a.749.749,0,1,1,.74906-.749A.749.749,0,0,1,298.79989,182.77122Z" transform="translate(-293.41466 -166.14124)"/><path class="cls-1" d="M312.3905,170.705H301.52293a3.36483,3.36483,0,0,0-2.69944-1.34913,3.51556,3.51556,0,0,0-.55607.04466,3.36245,3.36245,0,0,0-2.749,2.61266,3.384,3.384,0,0,0,3.305,4.10359,3.36462,3.36462,0,0,0,2.69944-1.34916h11.32075V170.705Zm0,3.60947H301.2864a2.92759,2.92759,0,1,1-2.94715-4.46651,3.049,3.049,0,0,1,.48424-.03894,2.92261,2.92261,0,0,1,2.46291,1.34913h11.1041Z" transform="translate(-293.41466 -166.14124)"/><path class="cls-1" d="M303.52369,184.68041a2.86864,2.86864,0,0,1-2.8652,2.86517H296.9413a2.86863,2.86863,0,0,1-2.86517-2.86517V169.66788a2.86864,2.86864,0,0,1,2.86517-2.86521h3.71719a2.86865,2.86865,0,0,1,2.8652,2.86521v.021h.66147v-.021a3.53052,3.53052,0,0,0-3.52667-3.52664H296.9413a3.53051,3.53051,0,0,0-3.52664,3.52664v15.01253a3.53055,3.53055,0,0,0,3.52664,3.52664h3.71719a3.53055,3.53055,0,0,0,3.52667-3.52664v-8.77377h-.66147Z" transform="translate(-293.41466 -166.14124)"/><rect class="cls-1" x="8.14862" y="6.06507" width="10.15181" height="1.0599"/></g></svg>