<svg id="icons" xmlns="http://www.w3.org/2000/svg" viewBox="0 0 24.86835 24.86835"><defs><style>.cls-1{fill:#4d4d4e;}</style></defs><title>federal hierarchy 1</title><path class="cls-1" d="M131.2525,136.4856a.21725.21725,0,0,0,.105-.35383l-.858-.96453a15.217,15.217,0,0,1,10.32782-.25183,9.73958,9.73958,0,0,0-1.01788-2.2685l.29657,1.11005-1.00281-.64563-.99579.64764.31366-1.11456-.93475-.7627,1.19043-.05963.18207-.47467a9.84349,9.84349,0,0,0-2.06989-1.8045l-.22381.178.30725,1.14965-1.00287-.64556-.99579.64758.31366-1.1145-.93475-.76276,1.19043-.05957.04138-.10785a9.71987,9.71987,0,0,0-2.25965-.70526l-.09393.07465.30719,1.14971-1.00287-.64563-.99573.64765.31366-1.11456-.33294-.27167a9.79364,9.79364,0,0,0-9.712,8.82318l.42743.43585,2.04425-.77472-1.00165,1.895,1.3526,1.69354-2.14483-.34429-.3935.59881a9.75568,9.75568,0,0,0,1.65869,3.38318,12.747,12.747,0,0,1,7.60132-7.18774Zm-1.46069-2.76069.44385,1.10419-.06482-.03137-1.5744-1.77.27539-1.1004.5487,1.0437,1.19727-.08453Zm3.83386-1.90283.4259-1.11029.41858,1.10236,1.1988.06067-.92121.73248.30725,1.14966-1.00287-.64563-.99578.64764.31366-1.11456-.93476-.7627Zm-3.88391-2.12341.4259-1.11035.41858,1.10235,1.19879.06067-.9212.73249.30725,1.14965-1.00287-.64556-.99579.64758.31366-1.1145-.93475-.76276Zm-3.81073,6.04242-1.73267-.48248,1.59-.7934-.0824-1.771,1.2309,1.255,1.67334-.63416-.81989,1.55121,1.10718,1.38629-1.75568-.28186-.97247,1.48Z" transform="translate(-119.01917 -125.32104)"/><path class="cls-1" d="M136.94086,142.18872l.387.42523a19.93906,19.93906,0,0,0-4.19031,2.85578,16.1725,16.1725,0,0,0-2.04229,2.0711c.11889.00427.23809.0072.358.0072a9.79494,9.79494,0,0,0,8.99542-5.91723,25.75568,25.75568,0,0,0-3.49719.55548Z" transform="translate(-119.01917 -125.32104)"/><path class="cls-1" d="M141.198,136.78076a19.63752,19.63752,0,0,0-8.606.27118l-.01068.00238.387.42523a19.94193,19.94193,0,0,0-4.1903,2.85578,16.88224,16.88224,0,0,0-3.84479,4.72583,9.7743,9.7743,0,0,0,3.761,2.0921,12.58144,12.58144,0,0,1,2.86017-3.529c2.27961-1.92432,3.54932-2.49414,4.65149-2.73834l-.97265-1.06482a14.122,14.122,0,0,1,5.7467.209,9.81733,9.81733,0,0,0,.26617-2.2749Q141.24615,137.2619,141.198,136.78076Z" transform="translate(-119.01917 -125.32104)"/><path class="cls-1" d="M131.45337,125.321a12.43418,12.43418,0,1,0,12.43414,12.43415A12.44825,12.44825,0,0,0,131.45337,125.321Zm0,24.36835a11.93418,11.93418,0,1,1,11.93414-11.9342A11.93421,11.93421,0,0,1,131.45337,149.68939Z" transform="translate(-119.01917 -125.32104)"/></svg>