<svg id="icons" xmlns="http://www.w3.org/2000/svg" viewBox="0 0 25.71334 16.52552"><defs><style>.cls-1{fill:#4d4d4e;}</style></defs><title>federal assistance</title><g id="Federal_Assistance" data-name="Federal Assistance"><path class="cls-1" d="M275.58936,136.00324l-.1-.15024c-.05843-.0865-.11759-.17261-.16756-.26377l-.55941-1.01973c-.76015-1.385-1.54621-2.81717-2.30407-4.23229a1.16012,1.16012,0,0,0-1.03422-.72061H271.424a1.39248,1.39248,0,0,0-.7025.214c-.37133.21551-.7452.427-1.12315.63064a1.1712,1.1712,0,0,0-.60781.69149,1.05472,1.05472,0,0,0-.03646.28l-.16035.11647a1.07217,1.07217,0,0,1-.63476.23472,1.68815,1.68815,0,0,1-.89243-.33768c-.3104-.20179-.64676-.41637-1.00274-.6185a3.89952,3.89952,0,0,0-1.92875-.55278,3.4801,3.4801,0,0,0-1.78473.51075c-.13379.079-.276.165-.41192.24553l-.44234-.19149a2.42242,2.42242,0,0,0-.98281-.22475,3.22326,3.22326,0,0,0-1.57638.50714,4.30423,4.30423,0,0,1-1.84578.68637,1.59693,1.59693,0,0,1-1.0796-.45421l-.17229-.15025a1.01181,1.01181,0,0,0-.67365-1.08813c-.26055-.10821-.52655-.2035-.79261-.29859l-.30155-.10867a2.62193,2.62193,0,0,0-.86272-.21615h-.00007c-.66853.00006-.896.56964-1.11593,1.12045q-.808,2.02332-1.6217,4.04447l-.6663,1.65915-.03981.09922v.80154l.33735.14316.506.21734c.53245.23006,1.083.46792,1.64589.66886l.09024.03227.11962.00374a.96494.96494,0,0,0,.59915-.26246.75323.75323,0,0,0,.04821.07929c.41283.46425.84383.91446,1.26067,1.34992l.41231.43192.02689.02827a1.59681,1.59681,0,0,0-.33827.97657,1.44076,1.44076,0,0,0,1.40127,1.39262h.00879l.03319-.00065a1.56535,1.56535,0,0,0,.71214-.22423,2.51879,2.51879,0,0,0,.06047.49547,1.28511,1.28511,0,0,0,.632.71851c.03849.02466.0747.0461.10086.06729l.19052.15438.24986-.03122c.07942-.01226.143-.01745.19379-.02177a1.64281,1.64281,0,0,0,.199-.031l-.00243.012a1.5859,1.5859,0,0,0,.43441,1.11718,1.30824,1.30824,0,0,0,.94208.41553,1.53866,1.53866,0,0,0,.89938-.34634,1.23937,1.23937,0,0,0,.0202.42464,1.271,1.271,0,0,0,.67123.83026,1.74615,1.74615,0,0,0,.73884.1591,1.31369,1.31369,0,0,0,.70349-.183,4.82525,4.82525,0,0,0,1.11016-1.04976,1.5211,1.5211,0,0,0,.6747.17661,1.25034,1.25034,0,0,0,.97546-.4857,1.4606,1.4606,0,0,0,.34456-1.01572,1.44449,1.44449,0,0,0,.79334.24671,1.36987,1.36987,0,0,0,1.27464-.92889,1.58379,1.58379,0,0,0,.1107-.57744.98539.98539,0,0,0,.50963.1547h.01273l.02433-.00085a2.07124,2.07124,0,0,0,1.23011-.49455.87194.87194,0,0,0,.31407-.62689.79755.79755,0,0,0-.02866-.2176l.08794-.09739.55548-.61273c.575-.63286,1.118-1.23063,1.653-1.85752a.94324.94324,0,0,0,.17051-.34529,1.38206,1.38206,0,0,0,.59909.1591.76965.76965,0,0,0,.34581-.07666,14.13336,14.13336,0,0,0,1.33819-.79118c.1526-.098.30521-.19608.459-.2917l.26134-.16245v-.7993ZM252.664,137.729a.07078.07078,0,0,1-.02374-.00374c-.71962-.25688-1.41721-.57548-2.12182-.87446v-.32811q1.14476-2.852,2.2884-5.70446c.22252-.55724.32876-.77215.60177-.77215a2.27321,2.27321,0,0,1,.67234.18238c.35814.13116.72042.25255,1.07233.39873a.46779.46779,0,0,1,.34062.53738l-.16041.40155-.44529,1.11377c-.59207,1.4801-1.17011,2.92512-1.73614,4.37474a1.03253,1.03253,0,0,0-.058.31269A.72609.72609,0,0,1,252.664,137.729Zm3.4347,3.99574-.02447.00039a.88285.88285,0,0,1-.84809-.8616,1.26935,1.26935,0,0,1,.49363-.91342,1.99748,1.99748,0,0,1,.75949-.30272.76213.76213,0,0,1,.23911.05495,2.13371,2.13371,0,0,1,.57246.8601.8227.8227,0,0,1-.10591.37368c-.02046.02276-.04669.04309-.06676.066a.99418.99418,0,0,0-.10178.18055A1.3983,1.3983,0,0,1,256.09871,141.72476Zm1.8789,1.18643c-.14277-.12027-.49422-.27222-.55252-.49946a1.55639,1.55639,0,0,1,.031-.89578,2.0443,2.0443,0,0,0,.15477-.2239,7.80184,7.80184,0,0,1,.55856-.549c.09712-.08375.19307-.16835.28862-.25262l.02118-.018c.24029-.19714.48531-.38955.741-.56066a.58338.58338,0,0,1,.31649-.07384,1.29092,1.29092,0,0,1,.49475.11168c.01043.01023.02315.01037.03312.02191a2.53575,2.53575,0,0,1,.30154.51081q.0674.13536.13917.2681a.5817.5817,0,0,1-.14278.30272c-.15247.16533-.3241.313-.48753.46832-.315.27374-.63135.563-.94752.86416-.176.15091-.35191.30188-.5257.45455C258.34434,142.89067,258.22676,142.8727,257.97761,142.91119Zm1.8513,1.48549a.76055.76055,0,0,1-.54774-.25046.96043.96043,0,0,1-.04761-1.29071c.01889-.01816.03915-.035.05811-.05312.34974-.2999.7-.615,1.04071-.94371.32607-.28056.65771-.55462.99841-.81577a.65772.65772,0,0,1,.38044-.09667.8826.8826,0,0,1,.37315.079.65374.65374,0,0,1,.1511.11273,1.38179,1.38179,0,0,1,.24272,1.05927,1.967,1.967,0,0,1-.314.43251c-.53744.51364-1.10938.99159-1.67351,1.47683A1.03581,1.03581,0,0,1,259.82891,144.39668Zm2.73225.97355a.76393.76393,0,0,1-.4026.09411,1.19227,1.19227,0,0,1-.49659-.10329.70465.70465,0,0,1-.29806-.99205,11.67845,11.67845,0,0,1,1.39393-1.46745.20274.20274,0,0,1,.1389-.03456l.03.00033-.001-.01869.00184.00085-.00085.01784.02525.00026.01337-.00065c.6469.258.81754.57383.68959,1.32317l-.02544.1488A4.3278,4.3278,0,0,1,262.56116,145.37023Zm6.99255-3.92308a1.52609,1.52609,0,0,1-.88686.35447l-.01161.00026c-.19779,0-.43585-.22678-.60223-.4-.69378-.72264-1.357-1.47473-2.05709-2.19094-.106-.10841-.34752-.08441-.52636-.12166.02079.19084-.02938.44412.07431.562.55285.62873,1.14295,1.22467,1.72269,1.82959a.97938.97938,0,0,1,.25183,1.098.81831.81831,0,0,1-.75812.57469.97822.97822,0,0,1-.69215-.324c-.68709-.70382-1.34861-1.43269-2.0401-2.132-.11142-.1128-.32135-.12821-.48583-.18861.02171.20435-.03108.47008.078.60243.46261.5615.9786,1.07861,1.46476,1.6213a1.03633,1.03633,0,0,1,.114,1.38691.708.708,0,0,1-.552.28876.93714.93714,0,0,1-.37073-.09444,1.4689,1.4689,0,0,0-.037-1.14984,1.44906,1.44906,0,0,0-1.08321-.82232c-.03279-.01292-.06164-.02715-.096-.03961.03384-.05712.06565-.113.10474-.17287l.2029-.311-.21077-.30581c-.05778-.08381-.10782-.17057-.15628-.25373a2.66455,2.66455,0,0,0-.34719-.47061,1.24555,1.24555,0,0,0-.21091-.19386c-.01141-.00748-.017-.01928-.02879-.02643-.0061-.00367-.01259-.00348-.01869-.007a1.19653,1.19653,0,0,0-.66172-.20061,1.64838,1.64838,0,0,0-.67234.15995c-.00144-.01489.00558-.02866.00354-.04361a1.34344,1.34344,0,0,0-.61954-.94752,1.55485,1.55485,0,0,0-.16934-.07109,1.16986,1.16986,0,0,0-.678-.23885,1.37526,1.37526,0,0,0-.84659.29636c-.20645.16245-.40326.341-.60177.51593-.11254.09195-.22442.18324-.33027.27826a1.49863,1.49863,0,0,0-.90443-1.12826.84911.84911,0,0,0-.12789-.04249,1.30543,1.30543,0,0,0-.175-.0366.85809.85809,0,0,0-.08939-.01869c-.00852,0-.01961.00564-.02826.00584-.02191-.00112-.04276-.00709-.06486-.00709h-.00827l-.02977.0006a1.67577,1.67577,0,0,0-.98267.40607l-.0225.01122c-.54937-.57863-1.12-1.16033-1.66085-1.76853a.43708.43708,0,0,1-.079-.25289c.52524-1.31753,1.03907-2.63938,1.55251-3.96157q.33564-.8643.6726-1.72813a2.13367,2.13367,0,0,0,1.42.57311,4.64045,4.64045,0,0,0,2.11191-.75458,2.7682,2.7682,0,0,1,1.31025-.43893,1.88853,1.88853,0,0,1,.76291.17916c-.13923.1132-.24822.21459-.36935.29833-.625.37579-1.25549.76-1.87963,1.1543a15.72488,15.72488,0,0,0-1.49906,1.11056,1.50346,1.50346,0,0,0-.40005,1.99708,1.26226,1.26226,0,0,0,1.09653.60584,2.08278,2.08278,0,0,0,.661-.12231,3.63669,3.63669,0,0,0,.47153-.19858l.88286-.43815c.83459-.413,1.69764-.84,2.53668-1.28723a1.07573,1.07573,0,0,1,.17137-.07627l.00334-.00059a.41156.41156,0,0,1,.17576.04755.83351.83351,0,0,1,.07653.07161c.7193.78009,1.46431,1.55677,2.18478,2.30794q.54764.571,1.09338,1.14361c.61862.65142,1.23483,1.3052,1.88533,1.99544l.915.97041.17445.18481A.28941.28941,0,0,1,269.55371,141.44715Zm2.52947-3.35855c-.69.80849-1.41328,1.58983-2.159,2.41523-.04119-.04623-.08263-.091-.11936-.12893l-.03666-.0381-.73123-.76553c-1.66518-1.74316-3.38708-3.54573-5.06675-5.3302a1.4593,1.4593,0,0,0-.38477-.29006.65863.65863,0,0,0-.36011-.12979.81649.81649,0,0,0-.25524.04709,1.61363,1.61363,0,0,0-.45022.15372c-.98122.5238-2.041,1.05724-3.23985,1.631a2.75643,2.75643,0,0,1-.86069.24855.59729.59729,0,0,1-.06551.00368.63954.63954,0,0,1-.611-.58807.98324.98324,0,0,1,.46169-1.02832l.68283-.46346q1.16748-.79219,2.33358-1.58641c.53777-.32444,1.07036-.65733,1.611-.97671a2.92049,2.92049,0,0,1,1.50319-.43375,3.34569,3.34569,0,0,1,1.65534.48051c.33171.18842.65444.39336.97441.60132a2.22937,2.22937,0,0,0,1.19417.42713,1.604,1.604,0,0,0,.94122-.33034c.00387.00742.00492.014.009.02145l.14415.26606c.93729,1.72978,1.90638,3.51569,2.89161,5.26166A.62929.62929,0,0,1,272.08318,138.0886Zm3.0414-1.4565c-.5798.36044-1.14282.75478-1.75141,1.05724a.22564.22564,0,0,1-.09929.01882.788.788,0,0,1-.56013-.268c-.027-.04774-.05234-.09647-.07929-.14428-.00531-.01122-.006-.02538-.01187-.0362-.77825-1.45374-1.55907-2.87424-2.38579-4.37808l-.63233-1.15089-.0585-.10664a.5293.5293,0,0,1,.31492-.67548c.38313-.20639.76212-.42071,1.13856-.63923a.86662.86662,0,0,1,.42457-.13909c.21636-.00007.3912.13883.54623.42824.94221,1.75929,1.90678,3.50657,2.866,5.25674.08519.1555.19169.29945.28829.44871Z" transform="translate(-249.96488 -129.49246)"/><polygon class="cls-1" points="12.962 13.375 12.962 13.375 12.962 13.375 12.962 13.375"/></g></svg>