<svg id="icons" xmlns="http://www.w3.org/2000/svg" viewBox="0 0 24.86835 24.86835"><defs><style>.cls-1{fill:#4d4d4e;}</style></defs><title>federal hierarchy 2</title><path class="cls-1" d="M175.06763,136.48969a.21652.21652,0,0,0,.10467-.35267l-.85516-.96142a15.16738,15.16738,0,0,1,10.29437-.251,9.70867,9.70867,0,0,0-1.01459-2.26117l.29566,1.10651-.99964-.64356-.99255.64557.31268-1.111-.9317-.76025,1.18653-.05939.18151-.47321a9.81287,9.81287,0,0,0-2.06323-1.79858l-.223.17731.30621,1.146-.99963-.64349-.99255.64551.31268-1.111-.93176-.76019,1.18658-.05945.0412-.10742a9.68917,9.68917,0,0,0-2.25232-.70306l-.09357.07446.30622,1.14594-.99964-.6435-.99255.64551.31262-1.1109-.33185-.27081a9.76188,9.76188,0,0,0-9.68054,8.79461l.426.43439,2.03765-.77216-.99841,1.88886,1.34815,1.68811-2.13782-.3432-.39221.59686a9.72405,9.72405,0,0,0,1.65332,3.37225,12.70541,12.70541,0,0,1,7.57666-7.16448Zm-1.45594-2.75177.44239,1.10058-.06458-.03125-1.56933-1.76422.27453-1.0968.54688,1.04034,1.19342-.08429Zm3.82142-1.89661.42456-1.10669.41723,1.09875,1.19489.06049-.91822.73.30622,1.146-.99964-.64356-.99249.64557.31262-1.111-.9317-.76025Zm-3.87134-2.11658.42456-1.10675.41723,1.09882,1.19489.06042-.91821.7301.30621,1.146-.99963-.64355-.99256.64556.31269-1.111-.93171-.76025Zm-3.79834,6.02283-1.72711-.4809,1.58483-.79083-.08215-1.76526,1.22693,1.25092,1.668-.63208-.81726,1.5462,1.10357,1.38184-1.75-.281-.96929,1.47516Z" transform="translate(-162.83362 -125.32104)"/><path class="cls-1" d="M180.73761,142.17432l.38574.42382a19.87839,19.87839,0,0,0-4.17676,2.84656,16.12109,16.12109,0,0,0-2.0357,2.06446c.11853.00421.23736.00714.35693.00714a9.76315,9.76315,0,0,0,8.96625-5.89807,25.66576,25.66576,0,0,0-3.48584.55371Zm1.44415.47247q.36924-.06555.73175-.11914a9.00876,9.00876,0,0,1-6.18243,4.11969q.34176-.32757.69934-.62952a19.42178,19.42178,0,0,1,4.01611-2.74286l.91107-.435Z" transform="translate(-162.83362 -125.32104)"/><path class="cls-1" d="M184.981,136.78387a15.444,15.444,0,0,0-3.39978-.35748,23.53313,23.53313,0,0,0-5.17841.62781l-.01062.00238.38574.42383a19.87772,19.87772,0,0,0-4.17675,2.84656,16.82741,16.82741,0,0,0-3.83228,4.71051,9.74258,9.74258,0,0,0,3.74884,2.08532,12.53965,12.53965,0,0,1,2.85089-3.51758c2.27228-1.91809,3.53784-2.48608,4.63648-2.72949l-.96955-1.06134a18.21961,18.21961,0,0,1,2.53467-.18658,11.91272,11.91272,0,0,1,3.19342.3949,9.78486,9.78486,0,0,0,.26532-2.26752Q185.02893,137.26346,184.981,136.78387Zm-.80426,2.33063a13.59224,13.59224,0,0,0-2.60657-.23669,19.062,19.062,0,0,0-2.639.19391l-1.409.19806.95965,1.05047.17847.19538a15.028,15.028,0,0,0-3.77545,2.51647,13.23445,13.23445,0,0,0-2.71,3.18848,9.08108,9.08108,0,0,1-2.44165-1.355,15.79779,15.79779,0,0,1,3.35174-3.96551,19.42306,19.42306,0,0,1,4.01605-2.74286l.91107-.435-.17584-.19318a21.50178,21.50178,0,0,1,3.74494-.35266,15.22944,15.22944,0,0,1,2.691.22907q.00676.17541.00677.34973A9.09039,9.09039,0,0,1,184.1767,139.1145Z" transform="translate(-162.83362 -125.32104)"/><path class="cls-1" d="M175.26782,125.321A12.43418,12.43418,0,1,0,187.702,137.75519,12.44825,12.44825,0,0,0,175.26782,125.321Zm0,24.36835a11.93418,11.93418,0,1,1,11.93415-11.9342A11.93422,11.93422,0,0,1,175.26782,149.68939Z" transform="translate(-162.83362 -125.32104)"/></svg>