<svg id="icons" xmlns="http://www.w3.org/2000/svg" viewBox="0 0 23.16565 19.75541"><defs><style>.cls-1{fill:#4d4d4e;}</style></defs><title>feedback</title><g id="Feedback"><path class="cls-1" d="M270.757,51.36064H254.88617a3.65157,3.65157,0,0,0-3.64738,3.64747v8.61581a1.9885,1.9885,0,0,0,.01129.202l-.01129.17236v7.11778l.95985-.84455,3.40978-3.0002H270.757a3.65155,3.65155,0,0,0,3.64742-3.64738V55.00811A3.65157,3.65157,0,0,0,270.757,51.36064Zm3.06939,12.26328a3.06933,3.06933,0,0,1-3.06939,3.06935H255.39034l-3.57352,3.14424V63.99827h.03777a3.02047,3.02047,0,0,1-.03777-.37435V55.00811a3.0694,3.0694,0,0,1,3.06935-3.06944H270.757a3.06941,3.06941,0,0,1,3.06939,3.06944Z" transform="translate(-251.23879 -51.36064)"/><rect class="cls-1" x="4.06241" y="4.96778" width="15.0407" height="0.57803"/><rect class="cls-1" x="4.06241" y="8.05058" width="15.0407" height="0.57803"/><rect class="cls-1" x="4.06241" y="11.13339" width="9.6458" height="0.57803"/></g></svg>