<svg id="icons" xmlns="http://www.w3.org/2000/svg" viewBox="0 0 19.14286 17.23435"><defs><style>.cls-1{fill:#4d4d4e;}</style></defs><title>filters</title><g id="Filters"><path class="cls-1" d="M178.92555,353.09884a2.52341,2.52341,0,0,0-2.44621,1.88892H169.257v1.22332h7.2223a2.52842,2.52842,0,0,0,4.89242,0h6.86318v-1.22332h-6.86318A2.52339,2.52339,0,0,0,178.92555,353.09884Zm1.30633,3.30013-.00439.00713q-.0279.044-.05866.086l-.004.00534a1.53311,1.53311,0,0,1-.20782.22824l-.0152.01368c-.02365.02067-.04777.04068-.07268.05991l-.02115.01565a1.53553,1.53553,0,0,1-.14511.096l-.02368.01425c-.02149.012-.04356.02291-.06568.0339q-.02685.0134-.05421.02586c-.0202.00905-.04041.01795-.06106.02616-.02594.01037-.05242.01966-.079.02864-.01652.00553-.03276.01153-.04952.01655-.03874.01159-.07821.02147-.11816.03005l-.04519.00851q-.048.00882-.09692.01463l-.04333.00487c-.04631.00418-.093.007-.14044.007h-.00006c-.04742,0-.09415-.00284-.14051-.007l-.04321-.00484q-.04906-.00587-.0971-.01469l-.045-.00845c-.04-.00861-.07961-.01849-.11844-.03014-.01662-.005-.03276-.01093-.04914-.01643-.0267-.009-.05324-.01833-.07926-.02873-.0206-.00818-.04078-.017-.06094-.0261q-.02752-.01245-.0544-.026c-.022-.011-.044-.02184-.06546-.03378l-.02467-.01488a1.54,1.54,0,0,1-.14391-.09521l-.02158-.016c-.0248-.01914-.04883-.03909-.07236-.05967l-.01566-.01407a1.53336,1.53336,0,0,1-.20723-.22761l-.00449-.00594q-.03064-.04176-.05838-.08554l-.00481-.00782a1.499,1.499,0,0,1,0-1.59814l.00481-.00783q.02779-.04386.05838-.08554l.00449-.00594a1.53336,1.53336,0,0,1,.20723-.22761l.01566-.01407c.02353-.02057.04756-.04052.07236-.05967l.02158-.016a1.54194,1.54194,0,0,1,.14391-.09521l.02467-.01487c.02142-.012.04342-.02282.06546-.03378q.02694-.01344.0544-.026c.02016-.00905.04034-.01792.06094-.0261.026-.01039.05256-.01971.07926-.02873.01638-.0055.03252-.01144.04914-.01643.03883-.01164.07841-.02153.11844-.03013l.045-.00845q.04808-.00888.0971-.0147l.04321-.00484c.04636-.00418.09309-.007.14051-.007h.00006c.0474,0,.09413.00284.14044.007l.04333.00487q.049.00582.09692.01464l.04519.00851c.04.00857.07942.01846.11816.03.01676.005.033.011.04952.01655.02662.009.0531.01828.079.02864.02065.00821.04086.01711.06106.02616q.02742.01242.05421.02587c.02212.011.04419.02189.06568.0339l.02368.01424a1.53748,1.53748,0,0,1,.14511.096l.02115.01565c.02491.01924.049.03925.07268.05991l.0152.01368a1.53311,1.53311,0,0,1,.20782.22824l.004.00535q.03081.042.05866.086l.00439.00714a1.49917,1.49917,0,0,1,0,1.5991Z" transform="translate(-169.25704 -340.86564)"/><path class="cls-1" d="M186.8856,348.87116a2.5285,2.5285,0,0,0-4.89255,0H169.422v1.22332h12.57105a2.5285,2.5285,0,0,0,4.89255,0h1.5143v-1.22332Zm-1.13889,1.40947-.00593.00968q-.02745.04323-.05764.08446l-.00561.00741a1.53308,1.53308,0,0,1-.206.22615l-.01647.01481c-.02338.02043-.04722.0402-.07183.05922l-.02248.01664a1.53273,1.53273,0,0,1-.142.094l-.026.01565c-.02135.01188-.04325.02273-.06521.03366-.018.009-.03623.01774-.05467.02607-.02012.009-.04024.01786-.06082.026-.026.01043-.05252.01972-.0792.02871-.01661.00558-.033.01158-.04986.01663-.03857.01153-.07783.02139-.11762.02993l-.04559.00857q-.04765.00873-.09627.01454l-.04395.00493c-.04574.00412-.09185.0069-.13864.00693l-.00162.00009-.0019-.00012c-.04664-.00006-.0926-.00278-.13817-.0069l-.04438-.005q-.04829-.00577-.09561-.01445l-.04618-.00869c-.03922-.00843-.07791-.01816-.11593-.02951-.01774-.00526-.035-.0115-.05244-.01738-.02621-.00887-.05228-.018-.07783-.0282-.02079-.00827-.04114-.0172-.06146-.02634-.01816-.00818-.03608-.01681-.05386-.02568-.02218-.011-.0443-.022-.06584-.034l-.02372-.01428a1.53431,1.53431,0,0,1-.14474-.09572l-.02165-.016c-.02474-.01908-.04871-.039-.07221-.05952l-.016-.01443a1.534,1.534,0,0,1-.20638-.22659l-.00537-.00711q-.03027-.04131-.05771-.08455l-.006-.00968a1.49884,1.49884,0,0,1-.00049-1.59473l.00671-.011q.02721-.04289.05712-.08372l.00643-.00848a1.53486,1.53486,0,0,1,.20477-.22483l.01752-.01577c.02314-.02019.04674-.03978.07108-.0586l.02377-.01759a1.53832,1.53832,0,0,1,.13807-.09148l.02931-.01765c.021-.01171.0426-.02237.0642-.03312.01846-.00926.037-.01819.05593-.0267.01979-.00887.03961-.01757.05984-.02563.02662-.01066.05377-.02019.08111-.02939.01526-.0051.03024-.01075.0457-.01541.03957-.01192.07992-.022.12074-.03073l.04428-.0083q.04851-.009.098-.01482l.04249-.00478c.04646-.00421.09331-.007.14085-.007s.09443.00283.14092.00707l.04209.00472q.04981.00588.09862.01488l.04371.00824c.04139.0089.08232.019.12241.03115.01462.00439.02871.0098.04313.0146.02781.00935.05542.01906.08249.0299.02.008.03963.01661.05921.02539.01915.00863.038.01768.05674.02706.02139.01066.04275.0212.06354.03282l.03159.019a1.53749,1.53749,0,0,1,.13536.08978l.02462.01822c.02419.0187.04767.03817.07068.05827l.018.01616a1.53453,1.53453,0,0,1,.20435.22438l.00665.00881q.02992.04086.05705.0836l.00671.011a1.49889,1.49889,0,0,1-.00051,1.59473Z" transform="translate(-169.25704 -340.86564)"/><path class="cls-1" d="M173.21756,345.8668a2.52343,2.52343,0,0,0,2.44633-1.88892h12.571v-1.22332h-12.571a2.5285,2.5285,0,0,0-4.89254,0H169.257v1.22332h1.51431A2.52338,2.52338,0,0,0,173.21756,345.8668Zm-1.30757-3.298.00632-.0103q.02731-.04305.05734-.08405l.00614-.00812a1.53324,1.53324,0,0,1,.20516-.22525l.01723-.0155c.02318-.02025.04683-.03987.07124-.05875l.02355-.01741a1.54005,1.54005,0,0,1,.13832-.09169l.0292-.01756c.021-.01174.04266-.02243.06431-.03318.0184-.0092.03692-.01813.05573-.02658.01985-.0089.03973-.01765.06-.02575.02654-.0106.05361-.02013.08085-.02927.01553-.00519.03075-.01093.04649-.01562.03934-.01185.07945-.02183.12-.03055l.04459-.00839q.04829-.00892.09753-.01473l.043-.00484c.04637-.00418.0931-.007.14056-.007h.00027c.04733,0,.094.00283.14021.007l.04348.00487q.04888.00584.09675.01461l.04529.00854c.04.00857.0794.01846.11814.03.01673.005.033.011.04946.01655.02667.009.05317.01828.07918.02867.02057.00819.04069.017.06081.026.01847.00833.03666.01708.05472.0261.02194.0109.04385.02174.06516.03363l.02594.01562a1.53927,1.53927,0,0,1,.14211.09408l.02246.0166c.02461.019.04842.03877.07179.0592l.01656.0149a1.532,1.532,0,0,1,.20587.226l.00567.00749q.03019.04122.05758.08438l.00611.00994a1.499,1.499,0,0,1,0,1.59522l-.00611.00994q-.02742.04323-.05758.08437l-.00567.0075a1.53254,1.53254,0,0,1-.20587.226l-.01656.0149c-.02337.02043-.04718.04017-.07179.05919l-.02246.01661a1.53927,1.53927,0,0,1-.14211.09408l-.02594.01562c-.02131.01189-.04322.02273-.06516.03363-.01806.009-.03625.01777-.05472.0261-.02012.009-.04024.01786-.06081.026-.026.0104-.05251.01969-.07918.02868-.01649.00555-.03273.01152-.04946.01654-.03874.01159-.07818.02148-.11814.03005l-.04529.00854q-.04789.00878-.09675.0146l-.04348.00487c-.04624.00418-.09288.007-.14021.007h-.00027c-.04746,0-.09419-.00284-.14056-.007l-.043-.00484q-.04927-.00582-.09753-.01472l-.04459-.00839c-.04059-.00872-.0807-.0187-.12-.03056-.01574-.00468-.031-.01042-.04649-.01562-.02724-.00914-.05431-.01866-.08085-.02926-.02028-.0081-.04016-.01685-.06-.02575-.01881-.00845-.03733-.01738-.05573-.02658-.02165-.01075-.04327-.02144-.06431-.03318l-.0292-.01756a1.5422,1.5422,0,0,1-.13832-.09169l-.02355-.01741c-.02441-.01888-.04806-.0385-.07124-.05875l-.01723-.0155a1.53375,1.53375,0,0,1-.20516-.22525l-.00614-.00813q-.03007-.041-.05734-.084l-.00632-.0103a1.49883,1.49883,0,0,1,0-1.59474Z" transform="translate(-169.25704 -340.86564)"/></g></svg>