<svg id="icons" xmlns="http://www.w3.org/2000/svg" viewBox="0 0 19.76265 19.76313"><defs><style>.cls-1{fill:#4d4d4e;}</style></defs><title>follow</title><g id="Follow"><path class="cls-1" d="M136.40675,339.70207H123.875a3.61959,3.61959,0,0,0-3.61571,3.61572V355.849a3.62,3.62,0,0,0,3.61571,3.6162h12.53171a3.61959,3.61959,0,0,0,3.61523-3.6162V343.31779A3.61918,3.61918,0,0,0,136.40675,339.70207Zm2.874,16.14694a2.87759,2.87759,0,0,1-2.874,2.875H123.875a2.87769,2.87769,0,0,1-2.87452-2.875V343.31779a2.87759,2.87759,0,0,1,2.87452-2.87453h12.53171a2.87749,2.87749,0,0,1,2.874,2.87453Z" transform="translate(-120.25933 -339.70207)"/><path class="cls-1" d="M132.031,342.28224h-3.78026v5.57968H122.84v3.44248h5.41078v5.58015H132.031V351.3044h5.41127v-3.44248H132.031Zm4.67008,6.32087v1.9601h-5.41127v5.58015H128.992v-5.58015h-5.41078v-1.9601H128.992v-5.57968h2.29788v5.57968Z" transform="translate(-120.25933 -339.70207)"/></g></svg>