<svg id="icons" xmlns="http://www.w3.org/2000/svg" viewBox="0 0 25.72861 21.48839"><defs><style>.cls-1{fill:#4d4d4e;fill-rule:evenodd;}</style></defs><title>global</title><g id="Global"><path class="cls-1" d="M122.68362,303.0475l.18468-.16708a4.02381,4.02381,0,0,1,1.81858-.864c.39-.10873.82312-.2052,1.28741-.28677l.44947-.079v-12.0079l-.65052.13058a14.40556,14.40556,0,0,0-3.56271,1.18523l-.30213.14978V303.0475h.77522Zm-.23166-11.602a13.79793,13.79793,0,0,1,3.42824-1.13926v10.88795c-.47915.08418-.92835.184-1.33925.29855a4.65041,4.65041,0,0,0-2.06475,1.01116H122.452Z" transform="translate(-117.1302 -289.39376)"/><path class="cls-1" d="M129.96144,301.41567c.50087,0,1.00227.014,1.49027.04154l.57421.03247V289.47307l-.50879-.03265c-.48317-.031-.9828-.04666-1.48509-.04666-.69272,0-1.3746.02963-2.02675.08807l-.495.04436v11.99728l.58257-.04193C128.70026,301.43784,129.329,301.41567,129.96144,301.41567Zm-1.90763-11.39245c.61757-.05534,1.27618-.08591,1.97823-.08591.50631,0,.98931.016,1.45033.04556v10.93167c-.49548-.028-1.00431-.04242-1.52093-.04242-.652,0-1.2917.02295-1.90763.06728Z" transform="translate(-117.1302 -289.39376)"/><path class="cls-1" d="M135.23834,302.09831a4.35771,4.35771,0,0,1,1.7602.80688l.1557.14231h.81149V291.28086l-.29151-.15257a13.73449,13.73449,0,0,0-3.56988-1.24127l-.65436-.13629V301.7251l.45106.07785A13.69149,13.69149,0,0,1,135.23834,302.09831Zm-1.24481-11.67915a13.128,13.128,0,0,1,3.42864,1.19067v10.89411h-.057a4.98622,4.98622,0,0,0-1.98088-.92924,14.23128,14.23128,0,0,0-1.39079-.30739Z" transform="translate(-117.1302 -289.39376)"/><path class="cls-1" d="M142.76539,307.60054a1.12984,1.12984,0,0,0-1.44821-.6034c-.0617.0241-.12846.05162-.20569.08351-.89345.369-3.61257,1.49173-11.45279,1.49173a38.4594,38.4594,0,0,1-8.09661-.82338,20.63765,20.63765,0,0,1-2.88119-.81043,1.13067,1.13067,0,0,0-1.50921.75l-.04149.04464.00093.21949.00053.04021.01579,1.30855.00536.44381.43588.08347q.53952.10332,1.17621.21016a66.86713,66.86713,0,0,0,10.841.84321,71.88433,71.88433,0,0,0,12.81133-.90208l.4416-.08431V307.639Zm-.45014,1.84561a69.34055,69.34055,0,0,1-12.70937.89244,66.31775,66.31775,0,0,1-10.7518-.83582q-.62976-.10476-1.16311-.20786l-.01557-1.28639c-.00023-.00743-.00027-.01491-.00023-.02243l-.00053-.04021.00182-.00194a.58666.58666,0,0,1,.8037-.50025,20.84921,20.84921,0,0,0,2.9663.83643,39.01341,39.01341,0,0,0,8.21224.83582c7.94829,0,10.74229-1.15382,11.66043-1.53291.07356-.03044.13713-.05667.19569-.07954a.58653.58653,0,0,1,.79818.49866l.00225.00093Z" transform="translate(-117.1302 -289.39376)"/><path class="cls-1" d="M129.90783,302.2092c-4.39451,0-7.96077.98777-7.998,2.21011h-.00093v2.50139a53.05019,53.05019,0,0,0,7.64068.53418,66.15757,66.15757,0,0,0,8.35711-.43886v-2.59671h-.00093C137.86859,303.197,134.30234,302.2092,129.90783,302.2092Zm-4.4951,4.25553-1.01948-.66295-1.01227.665.31889-1.14448-.95025-.78318,1.21013-.06122.433-1.14011.4255,1.13192,1.21858.06233-.93641.75208Zm5.93972.43978-1.3339-.86745-1.32439.87015.41718-1.4974-1.24327-1.0247,1.5833-.08011.56651-1.49173.55674,1.481,1.59445.08152-1.22526.98405Zm5.19007-.43978-1.01948-.66295-1.01227.665.31885-1.14448-.95021-.78318,1.21013-.06122.433-1.14011.42554,1.13192,1.21858.06233-.93641.75208Z" transform="translate(-117.1302 -289.39376)"/></g></svg>