<svg id="icons" xmlns="http://www.w3.org/2000/svg" viewBox="0 0 13.51215 22.90576"><defs><style>.cls-1{fill:#4d4d4e;}</style></defs><title>help</title><g id="Help"><path class="cls-1" d="M173.45828,48.80891a8.234,8.234,0,0,1,2.2979.30867,5.10818,5.10818,0,0,1,1.85071.9561,4.44741,4.44741,0,0,1,1.23364,1.6502,5.755,5.755,0,0,1,.44745,2.35936,4.13839,4.13839,0,0,1-.33928,1.712,6.71515,6.71515,0,0,1-.84819,1.40326q-.50892.64782-1.07956,1.24921a13.13879,13.13879,0,0,0-1.04871,1.2492,5.79341,5.79341,0,0,0-.75584,1.37266,3.57506,3.57506,0,0,0-.18494,1.64994h-3.979a4.69709,4.69709,0,0,1,.0773-1.91217,6.49872,6.49872,0,0,1,.663-1.60379,8.75353,8.75353,0,0,1,.97166-1.35736q.53911-.61642,1.03313-1.18747a8.03429,8.03429,0,0,0,.81758-1.11015,2.158,2.158,0,0,0,.32372-1.126,1.81284,1.81284,0,0,0-.57065-1.44944,2.20708,2.20708,0,0,0-1.49588-.4936,2.89354,2.89354,0,0,0-1.52673.401,6.77239,6.77239,0,0,0-1.28006,1.01783l-2.49842-2.2826a8.43441,8.43441,0,0,1,2.57544-2.03565,7.13127,7.13127,0,0,1,3.31572-.77116m-.43161,15.69954a2.60991,2.60991,0,0,1,1.95862.81733,2.84173,2.84173,0,0,1,.78645,2.05121,2.80094,2.80094,0,0,1-.78645,2.02036,2.609,2.609,0,0,1-1.95862.81733,2.55808,2.55808,0,0,1-1.94331-.81733,2.83031,2.83031,0,0,1-.77117-2.02036,2.872,2.872,0,0,1,.77117-2.05121,2.559,2.559,0,0,1,1.94331-.81733m.43161-16.44954a7.90612,7.90612,0,0,0-3.65921.85444,9.22032,9.22032,0,0,0-2.80234,2.21537l-.4709.55154.53542.48917,2.49841,2.2826.5293.48356.50693-.507a6.05558,6.05558,0,0,1,1.13763-.90626,2.13928,2.13928,0,0,1,1.13881-.29289,1.47652,1.47652,0,0,1,1.00558.31117,1.03432,1.03432,0,0,1,.31095.88187,1.40921,1.40921,0,0,1-.21684.74013,7.323,7.323,0,0,1-.74166,1.00533q-.49266.57026-1.03047,1.18441a9.54852,9.54852,0,0,0-1.05505,1.4734,7.27628,7.27628,0,0,0-.73954,1.78754,5.46026,5.46026,0,0,0-.09478,2.2156l.09449.64054h5.45527l-.08255-.82468a2.855,2.855,0,0,1,.13916-1.30727,5.06832,5.06832,0,0,1,.65853-1.19493,12.45213,12.45213,0,0,1,.98934-1.17841c.39725-.41917.77576-.85715,1.12552-1.30239a7.50012,7.50012,0,0,0,.94252-1.55914,4.90025,4.90025,0,0,0,.40518-2.01941,6.52058,6.52058,0,0,0-.51242-2.66471,5.21092,5.21092,0,0,0-1.44177-1.92371,5.87591,5.87591,0,0,0-2.11882-1.09758,9.01951,9.01951,0,0,0-2.50669-.33833Zm-.43161,15.69954a3.29328,3.29328,0,0,0-2.48874,1.05255,3.61094,3.61094,0,0,0-.97574,2.566,3.56938,3.56938,0,0,0,.97587,2.53529,3.29235,3.29235,0,0,0,2.48861,1.0524,3.344,3.344,0,0,0,2.49884-1.04708,3.53928,3.53928,0,0,0,.99623-2.54061,3.57993,3.57993,0,0,0-.99585-2.57107,3.34529,3.34529,0,0,0-2.49922-1.04747Z" transform="translate(-166.52583 -48.05891)"/></g></svg>