<svg id="icons" xmlns="http://www.w3.org/2000/svg" viewBox="0 0 21.94023 21.87654"><defs><style>.cls-1{fill:#4d4d4e;}</style></defs><title>help desk</title><g id="Help_Desk" data-name="Help Desk"><path class="cls-1" d="M225.52748,54.31615h-.71138a9.22279,9.22279,0,0,0-17.50957,0h-.8072a1.45348,1.45348,0,0,0-1.456,1.4476v5.66284a1.45348,1.45348,0,0,0,1.456,1.44759h1.42741a1.45344,1.45344,0,0,0,1.456-1.44759V56.83177a6.69215,6.69215,0,0,1,13.2613-.87614v5.471q0,.04833.0036.09562a6.64509,6.64509,0,0,1-4.48436,5.16022,1.46156,1.46156,0,0,0-.85661-.27786H214.816a1.45344,1.45344,0,0,0-1.456,1.4476v.57075a1.45344,1.45344,0,0,0,1.456,1.4476h2.49064a1.46672,1.46672,0,0,0,1.24142-.693,9.22948,9.22948,0,0,0,6.36254-6.30334h.61686a1.45348,1.45348,0,0,0,1.456-1.44759V55.76375A1.45348,1.45348,0,0,0,225.52748,54.31615Zm.84217,7.11044a.838.838,0,0,1-.84217.83373H224.434a8.5628,8.5628,0,0,1-6.31927,6.3961.841.841,0,0,1-.80805.60023H214.816a.838.838,0,0,1-.84212-.83373v-.57075a.838.838,0,0,1,.84212-.83373h2.49064a.84307.84307,0,0,1,.68885.355,7.27041,7.27041,0,0,0,5.27123-5.83239.83379.83379,0,0,1-.00884-.1145V55.90273a7.30532,7.30532,0,0,0-14.489.929v4.59482a.838.838,0,0,1-.84212.83373h-1.42741a.838.838,0,0,1-.84217-.83373V55.76375a.838.838,0,0,1,.84217-.83373h1.26555a8.60469,8.60469,0,0,1,16.59287,0h1.16973a.838.838,0,0,1,.84217.83373Z" transform="translate(-205.04329 -47.99398)"/><path class="cls-1" d="M220.50224,62.58813l.56566-.93229h-9.425l.56561.93229a4.854,4.854,0,0,0,8.29371,0Zm-7.76887-.31842h7.24407a4.24019,4.24019,0,0,1-7.24407,0Z" transform="translate(-205.04329 -47.99398)"/></g></svg>