<svg id="icons" xmlns="http://www.w3.org/2000/svg" viewBox="0 0 22.55948 22.55948"><defs><style>.cls-1{fill:#4d4d4e;}</style></defs><title>profile 1</title><path id="Profile_1" data-name="Profile 1" class="cls-1" d="M131.90329,203.89263a11.27974,11.27974,0,1,0,11.27977,11.27971A11.29249,11.29249,0,0,0,131.90329,203.89263ZM126.795,224.48181l.557-.31058c.51808-.28376,1.03658-.56752,1.5581-.847a2.15668,2.15668,0,0,0,1.21888-2.04995c-.00172-.13242.00129-.2657.0043-.399a6.47145,6.47145,0,0,0-.01806-.83752,1.60881,1.60881,0,0,0-.42048-.8401,2.15068,2.15068,0,0,1-.215-.30268,7.715,7.715,0,0,1-.71284-1.75931.801.801,0,0,0-.28591-.4265.45474.45474,0,0,1-.2025-.40242V214.968a.49287.49287,0,0,1,.15263-.3547.78666.78666,0,0,0,.215-.50776c.00559-.7769.0043-1.55422-.01075-2.33112a2.102,2.102,0,0,1,1.55595-2.12089,5.53459,5.53459,0,0,1,3.7237.07094,2.09927,2.09927,0,0,1,1.36548,2.11315c-.01891.71671-.01376,1.43384-.0086,2.151l.00086.13887a.71077.71077,0,0,0,.20723.48067.50635.50635,0,0,1,.16252.39985l-.00172,1.23005c-.00086.31558-.05847.39812-.36459.52023a.65809.65809,0,0,0-.36029.37576,7.53338,7.53338,0,0,1-1.338,2.48935.74655.74655,0,0,0-.1522.44886c-.00516.34137-.0043.68188-.00344,1.02411l.00086.25366a2.10485,2.10485,0,0,0,1.24252,2.0147l2.30044,1.14476a10.62549,10.62549,0,0,1-10.17111-.02762Zm10.83822-.37759-2.67261-1.33115a1.4526,1.4526,0,0,1-.87708-1.424l-.00086-.25538c-.00086-.33707-.00172-.67414.0043-1.04991a7.93232,7.93232,0,0,0,1.43686-2.67336,1.0674,1.0674,0,0,0,.77733-1.12988l.00172-1.2279a1.19415,1.19415,0,0,0-.36975-.89084l-.00086-.138c-.00516-.70983-.01032-1.41966.0086-2.12906a2.76968,2.76968,0,0,0-1.79027-2.74773,6.19886,6.19886,0,0,0-4.15793-.08341,2.767,2.767,0,0,0-2.01771,2.76364c.01505.77088.01634,1.54219-.02407,2.37284a1.1517,1.1517,0,0,0-.33278.807v1.34141a1.22482,1.22482,0,0,0,.50991.9923,8.36284,8.36284,0,0,0,.77131,1.91065,2.91454,2.91454,0,0,0,.2786.39726,1.06481,1.06481,0,0,1,.28032.49959,5.7715,5.7715,0,0,1,.01505.75239c-.00344.141-.00645.28118-.00473.42134a1.50153,1.50153,0,0,1-.8702,1.46008c-.52323.28032-1.04346.56494-1.56368.84955l-.8889.49572a10.62011,10.62011,0,1,1,11.48743.01683Z" transform="translate(-120.62358 -203.89263)"/></svg>