<svg id="icons" xmlns="http://www.w3.org/2000/svg" viewBox="0 0 23.39211 21.72685"><defs><style>.cls-1{fill:#4d4d4e;}</style></defs><title>profile 2</title><path id="Profile_2" data-name="Profile 2" class="cls-1" d="M176.731,203.89263a11.68416,11.68416,0,0,0-5.9868,21.72507l.69557-.37269.38958-.21533c.64865-.35932,1.38245-.7659,1.7975-.98835a2.23507,2.23507,0,0,0,1.2643-2.12561c-.00178-.13776.00134-.27551.00446-.41371a6.70885,6.70885,0,0,0-.01872-.86843,1.67122,1.67122,0,0,0-.436-.87156,2.24756,2.24756,0,0,1-.2229-.313,7.99048,7.99048,0,0,1-.73871-1.8238.8302.8302,0,0,0-.296-.44179.47334.47334,0,0,1-.21087-.41817v-1.38869a.51109.51109,0,0,1,.15826-.36779.8157.8157,0,0,0,.22291-.5265c.00579-.80557.00445-1.61159-.01115-2.41716a2.17955,2.17955,0,0,1,1.61338-2.19917,5.74288,5.74288,0,0,1,3.86158.07356,2.1773,2.1773,0,0,1,1.41588,2.19114c-.01961.73335-.01426,1.468-.00936,2.20229l.00134.17029a.73667.73667,0,0,0,.21443.50065.5214.5214,0,0,1,.16851.41415l-.00133,1.27456c-.00134.32767-.06152.41327-.37671.54032a.67605.67605,0,0,0-.37537.39053,7.815,7.815,0,0,1-1.38958,2.58211.77609.77609,0,0,0-.15514.46275c-.0058.329-.0049.658-.004.987l.00044.33881a2.18229,2.18229,0,0,0,1.28883,2.08861l1.06353.531h.00006l.68944.33748.656.30448-.017.008.72739.35575a11.68412,11.68412,0,0,0-5.98373-21.72685Zm5.97259,20.93822-.73079-.32588-2.07167-1.03472a1.50718,1.50718,0,0,1-.90989-1.47607l-.00044-.34015c-.00089-.32455-.00179-.64954.00356-1.01421a8.24292,8.24292,0,0,0,1.49167-2.77158,1.10931,1.10931,0,0,0,.80558-1.17248l.00133-1.27278a1.23906,1.23906,0,0,0-.38294-.92371l-.00134-.17119c-.00491-.72666-.01025-1.45333.00936-2.17955a2.87342,2.87342,0,0,0-1.85723-2.84915,6.42074,6.42074,0,0,0-4.311-.08649,2.86914,2.86914,0,0,0-2.09217,2.86565c.0156.79933.01694,1.59911-.025,2.46041a1.19422,1.19422,0,0,0-.34506.83678v1.39047a1.27476,1.27476,0,0,0,.52873,1.03026,8.66211,8.66211,0,0,0,.79978,1.97983,2.942,2.942,0,0,0,.28888.41193,1.10439,1.10439,0,0,1,.29067.51892,5.98046,5.98046,0,0,1,.0156.77971c-.00357.14578-.00669.29156-.0049.43645a1.55756,1.55756,0,0,1-.90232,1.5144c-.41772.22335-1.15464.63171-1.80685.99282l-.57822.31964-.00267-.004-.154.08715a11.01124,11.01124,0,1,1,11.94122-.00245Z" transform="translate(-165.03499 -203.89263)"/></svg>