<svg id="icons" xmlns="http://www.w3.org/2000/svg" viewBox="0 0 24.18661 22.83554"><defs><style>.cls-1{fill:#4d4d4e;}</style></defs><title>save</title><path id="Save" class="cls-1" d="M131.52177,375.92712l2.61229,6.87949,7.48133.37875-5.749,4.57105,1.91725,7.175-6.2587-4.02921-6.21441,4.04172,1.95755-6.9556-5.83358-4.76,7.42916-.372,2.65812-6.92923m.00357-2.10333-.70381,1.83472-2.4832,6.4732-6.94135.3476-1.9473.0975,1.51065,1.23267,5.45256,4.4491-1.82433,6.4822-.54,1.91855,1.67082-1.08664,5.80759-3.77713,5.85065,3.76651,1.63145,1.0503-.5009-1.87452-1.79038-6.70025,5.36432-4.26517,1.55414-1.23572-1.983-.10037-6.992-.354-2.43837-6.42145-.69758-1.8371Z" transform="translate(-119.44968 -373.82379)"/></svg>