<svg id="icons" xmlns="http://www.w3.org/2000/svg" viewBox="0 0 18.8932 18.84691"><defs><style>.cls-1{fill:#4d4d4e;}</style></defs><title>search</title><g id="Search"><path class="cls-1" d="M178.71688,296.82116q.29043,0,.58223.025a7.01786,7.01786,0,0,1,6.28959,5.50149,6.72674,6.72674,0,0,1,.159,1.514,6.987,6.987,0,0,1-1.32661,4.07668c-.05052.07053-.05137.1075.01068.16935q1.83212,1.8269,3.66015,3.65776c.45314.45318.9097.903,1.35808,1.36069a.976.976,0,0,1-.51706,1.64879,1.04741,1.04741,0,0,1-.1983.01948.9289.9289,0,0,1-.67158-.2925q-1.73115-1.72728-3.45891-3.45811-.7765-.77619-1.55293-1.55266a.11773.11773,0,0,0-.07966-.04536.13282.13282,0,0,0-.07549.03313,6.99564,6.99564,0,0,1-4.1509,1.36851,7.0442,7.0442,0,0,1-.79679-.0455,7.012,7.012,0,0,1-6.18234-6.16272,6.99253,6.99253,0,0,1-.01009-1.49492,7.00717,7.00717,0,0,1,6.961-6.32312m-.002,12.80123h.03949a5.78953,5.78953,0,0,0,.10774-11.57762c-.04162-.00085-.08363-.00127-.12507-.00127a5.78946,5.78946,0,0,0-.02216,11.57889m.00222-13.23806h0a7.441,7.441,0,0,0-7.39589,6.717,7.46058,7.46058,0,0,0,.01086,1.58793,7.45,7.45,0,0,0,6.56675,6.54665,7.39764,7.39764,0,0,0,2.28992-.09428,7.35867,7.35867,0,0,0,2.74261-1.15166q.43261.43405.8665.86612l.49746.4967,1.0977,1.09791q1.18025,1.18082,2.36148,2.36049a1.36885,1.36885,0,0,0,.98013.42005,1.49736,1.49736,0,0,0,.28054-.0273,1.41281,1.41281,0,0,0,.747-2.38338c-.31623-.32279-.63641-.6416-.95662-.96041l-.4047-.40355-.51968-.51974q-1.47839-1.47879-2.95807-2.95615a7.44583,7.44583,0,0,0,1.26142-4.11336,7.19469,7.19469,0,0,0-.1692-1.6138,7.45464,7.45464,0,0,0-6.6788-5.84263c-.20528-.01763-.41371-.02659-.61938-.02659Zm.03727,12.80122h-.03949a5.35262,5.35262,0,0,1,.02216-10.70522l.11584.00113a5.35271,5.35271,0,0,1-.09851,10.70409Z" transform="translate(-171.28411 -296.38433)"/></g></svg>