<svg id="icons" xmlns="http://www.w3.org/2000/svg" viewBox="0 0 24.38196 19.57443"><defs><style>.cls-1{fill:#4d4d4e;}</style></defs><title>user directory 2</title><path id="User_Directory_2" data-name="User Directory 2" class="cls-1" d="M186.65746,174.9978H172.92135v-.97951a.99919.99919,0,0,0-.99827-.99827h-6.83659a.9991.9991,0,0,0-.99785.99827v16.76343a1.8148,1.8148,0,0,0,1.81272,1.81273h5.68473l2.01326-1.09164.003-.00021c.09045-.04887.18038-.09878.271-.14734a1.80634,1.80634,0,0,0,1.022-1.71852c-.00125-.10754.00125-.2155.00375-.32345a5.35994,5.35994,0,0,0-.015-.69025,1.3738,1.3738,0,0,0-.35388-.71275,1.68318,1.68318,0,0,1-.17089-.23925,6.2376,6.2376,0,0,1-.57687-1.42342.70366.70366,0,0,0-.25217-.37638.32255.32255,0,0,1-.14506-.28886v-1.09205a.35086.35086,0,0,1,.11088-.25551.69534.69534,0,0,0,.18923-.44932c.00417-.63439.00333-1.2692-.00875-1.90359a1.66765,1.66765,0,0,1,1.2346-1.68227,4.48126,4.48126,0,0,1,3.00648.05752,1.66519,1.66519,0,0,1,1.08205,1.676c-.01542.589-.01125,1.17917-.0075,1.76855l.00083.10128a.63443.63443,0,0,0,.18465.42974.35806.35806,0,0,1,.11671.28927l-.00083,1.0041c-.00125.23884-.03335.28469-.26551.37805a.58006.58006,0,0,0-.32387.33846,6.09765,6.09765,0,0,1-1.08538,2.01654.66531.66531,0,0,0-.13338.39514c-.00417.25593-.00376.51227-.00292.76819l.00041.27635a1.78528,1.78528,0,0,0,1.04246,1.68935l1.13707.566,1.142.64023h5.853a1.81489,1.81489,0,0,0,1.81314-1.81273V176.81053A1.81489,1.81489,0,0,0,186.65746,174.9978Zm1.17292,15.78392a1.174,1.174,0,0,1-1.17292,1.1725h-5.55769l-2.28842-1.13873a1.13989,1.13989,0,0,1-.68816-1.11665l-.00042-.278c-.00083-.25176-.00125-.50393-.00875-.75569a6.12185,6.12185,0,0,0,1.15374-2.167.92586.92586,0,0,0,.66607-.96951l.00084-1.00077a.93184.93184,0,0,0-.30136-.729l-.00083-.10129c-.00376-.58271-.00792-1.16541.0075-1.7477a2.31143,2.31143,0,0,0-1.4947-2.29123,5.10252,5.10252,0,0,0-3.42663-.06961,2.30831,2.30831,0,0,0-1.68226,2.3054c.01209.62856.01292,1.25836-.00625,1.90109a.99013.99013,0,0,0-.2851.69316v1.095a1.00776,1.00776,0,0,0,.41765.82321,6.8711,6.8711,0,0,0,.634,1.57014,2.36536,2.36536,0,0,0,.23258.33179.83845.83845,0,0,1,.218.38221,4.69378,4.69378,0,0,1,.01167.60814c-.0025.115-.005.23008-.00375.34512a1.17872,1.17872,0,0,1-.68358,1.14665c-.43265.23134-.86322.46725-1.29379.70317l-.82613.46016h-5.5503a1.17388,1.17388,0,0,1-1.17249-1.1725V174.01829a.35817.35817,0,0,1,.35762-.358h6.83659a.35826.35826,0,0,1,.358.358V175.638h14.37634a1.174,1.174,0,0,1,1.17292,1.1725Z" transform="translate(-164.08864 -173.02002)"/></svg>