<svg id="icons" xmlns="http://www.w3.org/2000/svg" viewBox="0 0 25.02734 20.11182"><defs><style>.cls-1{fill:#4d4d4e;}</style></defs><title>user directory 1</title><path id="User_Directory_1" data-name="User Directory 1" class="cls-1" d="M142.13721,174.29248H128.13867v-.9541a1.06986,1.06986,0,0,0-1.06836-1.06836h-6.99072a1.06986,1.06986,0,0,0-1.06836,1.06836v17.14209a1.90362,1.90362,0,0,0,1.90137,1.90137h21.22461a1.90362,1.90362,0,0,0,1.90136-1.90137V176.19385A1.90362,1.90362,0,0,0,142.13721,174.29248Zm-11.9917,13.97461a1.4482,1.4482,0,0,0-.37207-.75293,1.68678,1.68678,0,0,1-.16992-.2373,6.33634,6.33634,0,0,1-.58594-1.44629.76516.76516,0,0,0-.27588-.41065.28.28,0,0,1-.12891-.25635v-1.11669a.30929.30929,0,0,1,.10059-.22852.76286.76286,0,0,0,.20654-.4917c.0044-.64941.00342-1.29883-.00928-1.94775a1.66031,1.66031,0,0,1,1.2295-1.67383,4.52258,4.52258,0,0,1,3.043.05762,1.65666,1.65666,0,0,1,1.07568,1.668c-.01514.58692-.01172,1.17432-.00781,1.76123l.001.15235a.698.698,0,0,0,.20362.47412.32381.32381,0,0,1,.105.26025l-.001,1.02637c-.001.22412-.02344.25586-.24023.34326a.64043.64043,0,0,0-.36036.37549,6.18487,6.18487,0,0,1-1.10107,2.04639.734.734,0,0,0-.14746.43408c-.0044.27978-.00391.55957-.00293.83887l.00049.23a1.87091,1.87091,0,0,0,1.09228,1.77l.98151.48877h-6.65692c.32025-.175.64013-.35077.962-.523a1.8919,1.8919,0,0,0,1.07032-1.8003c-.00147-.10986.00146-.21972.0039-.33007A5.57135,5.57135,0,0,0,130.14551,188.26709Zm13.14306,2.21338a1.1528,1.1528,0,0,1-1.15136,1.15137H136.465l-2.32972-1.15967a1.122,1.122,0,0,1-.67724-1.09961l-.00049-.23145c-.001-.2749-.00147-.5498-.02-.79492a6.88727,6.88727,0,0,0,1.2124-2.22363.97843.97843,0,0,0,.65967-1.01465l.001-1.02344a.91761.91761,0,0,0-.3086-.74511l-.001-.15186c-.00391-.5791-.00733-1.1582.00781-1.7373a2.40957,2.40957,0,0,0-1.55908-2.38868,5.2678,5.2678,0,0,0-3.53516-.07226,2.408,2.408,0,0,0-1.75391,2.40429c.0127.64209.01368,1.28565.00684,1.91016a1.05745,1.05745,0,0,0-.30469.7417V185.165a1.024,1.024,0,0,0,.42871.85351,7.04521,7.04521,0,0,0,.65332,1.6167,2.40378,2.40378,0,0,0,.2417.34571.83884.83884,0,0,1,.21289.36621,4.77257,4.77257,0,0,1,.01172.61474c-.00244.11866-.00537.23731-.0039.355a1.16248,1.16248,0,0,1-.67383,1.13086c-.46533.248-.92774.502-1.39014.75586l-.7677.42823h-5.663a1.15281,1.15281,0,0,1-1.15137-1.15137V173.33838a.31842.31842,0,0,1,.31836-.31836h6.99072a.31842.31842,0,0,1,.31836.31836v1.7041h14.74854a1.1528,1.1528,0,0,1,1.15136,1.15137Z" transform="translate(-119.01123 -172.27002)"/></svg>