<svg id="icons" xmlns="http://www.w3.org/2000/svg" viewBox="0 0 22.26427 17.06718"><defs><style>.cls-1{fill:#4d4d4e;}</style></defs><title>wage determination</title><g id="Wage_Determination" data-name="Wage Determination"><path class="cls-1" d="M209.18228,103.54957a9.68107,9.68107,0,0,1,.76746,1.6898H223.4c.09325-1.61889.53486-2.06144,2.25142-2.2781V98.42494c-1.61647-.08389-2.04693-.51291-2.27913-2.26046H209.79046c-.05949,1.73322-.93617,2.26279-2.19345,2.26279-.02927,0-.05855-.00027-.08823-.0008v4.5793c.10659-.00734.21331-.01173.31887-.01173A1.54028,1.54028,0,0,1,209.18228,103.54957Zm7.40408-6.59839a3.73181,3.73181,0,0,1,3.76659,3.77147,3.776,3.776,0,0,1-3.7541,3.76332l-.02494.00009a3.77945,3.77945,0,0,1-3.75745-3.789,3.73063,3.73063,0,0,1,3.75419-3.74587Zm8.515,1.97755v3.56063c-1.43741.26581-2.02321.8474-2.20281,2.19994h-4.64721a4.34816,4.34816,0,0,0,2.65167-3.96325,4.26788,4.26788,0,0,0-2.68255-4.01149h4.68261C223.17839,98.16566,223.75935,98.755,225.10137,98.92873Zm-17.04251.02382a2.37868,2.37868,0,0,0,2.23477-2.238h4.657a4.31786,4.31786,0,0,0-1.4187,7.051,4.32523,4.32523,0,0,0,1.35809.92378H210.3178c-.02758-.07-.05444-.13985-.08116-.209a5.62161,5.62161,0,0,0-.60478-1.24769,1.93666,1.93666,0,0,0-1.573-.78178Z" transform="translate(-205.4427 -90.20964)"/><path class="cls-1" d="M227.1569,94.15381h-.38082l-.06764-.39689-.11532-.68553c-.126-.75457-.245-1.46723-.39447-2.18723a1.0298,1.0298,0,0,0-.97454-.67452h-.03361l-.0612.00573c-.50007.06133-.99719.15121-1.47792.23815-.18587.03366-.37169.06723-.55773.09929l-4.19069.72054-6.272,1.07857-3.59729.6217-1.52049.26313-2.07047.35763.00035.56364v13.11879H227.707v-13.123ZM212.72429,92.894q5.23115-.90047,10.46261-1.79912c.66937-.11513,1.3361-.251,2.00942-.33359l.02775-.00161c.15484,0,.41439.13224.436.23627.19222.92619.33708,1.86223.50611,2.85342H224.6727l-.2998-1.51028a55.64185,55.64185,0,0,1-12.93064,1.59122q-1.91694,0-3.83535-.15157C209.25937,93.493,210.9916,93.19234,212.72429,92.894Zm11.448,1.25978h-6.99747a59.52743,59.52743,0,0,0,6.7693-1.14948l.03953.19911.14947.753Zm2.98459,12.57293H205.99312V94.70388H227.1569Z" transform="translate(-205.4427 -90.20964)"/><path class="cls-1" d="M216.58058,103.00344h.00591l-.0038-.55008a1.75831,1.75831,0,0,1-1.223-.529,1.73968,1.73968,0,0,1-.52263-1.21752,1.74759,1.74759,0,1,1,1.74942,1.74655v.55008a2.29614,2.29614,0,0,0,.00251-4.59228h-.00766a2.29614,2.29614,0,0,0-.00076,4.59228Z" transform="translate(-205.4427 -90.20964)"/></g></svg>