<svg id="icons" xmlns="http://www.w3.org/2000/svg" viewBox="0 0 23.05811 19.28278"><defs><style>.cls-1{fill:#4d4d4e;}</style></defs><title>workspace 1</title><g id="Workspace_1" data-name="Workspace 1"><path class="cls-1" d="M121.291,109.42407h6.2597V90.96521H121.291Zm.45922-17.99963h5.34125v17.5404h-5.34125Z" transform="translate(-121.29102 -90.17865)"/><path class="cls-1" d="M123.25464,99.43018h2.2724V93.70636h-2.2724Zm.45923-5.26459h1.35394V98.971h-1.35394Z" transform="translate(-121.29102 -90.17865)"/><rect class="cls-1" x="1.96362" y="14.06201" width="2.2724" height="0.45917"/><rect class="cls-1" x="1.96362" y="15.63989" width="2.2724" height="0.45923"/><path class="cls-1" d="M133.0097,93.70636h-2.2724v5.72382h2.2724Zm-.45922,5.26459h-1.35395V94.16559h1.35395Z" transform="translate(-121.29102 -90.17865)"/><rect class="cls-1" x="9.44635" y="14.06201" width="2.2724" height="0.45917"/><rect class="cls-1" x="9.44635" y="15.63989" width="2.2724" height="0.45923"/><path class="cls-1" d="M144.34912,108.337l-3.31641-18.15839-5.99957,1.09552v-.309H128.7735v18.45886h6.25964V92.169l3.158,17.29242Zm-9.77515.6278h-5.3413V91.42444h5.3413Zm6.08924-18.25225,3.15167,17.25494-5.25427.96-3.15167-17.25494Z" transform="translate(-121.29102 -90.17865)"/><path class="cls-1" d="M139.53448,93.23853l-2.23535.40832,1.02838,5.63062,2.23542-.40827Zm-1.70111.77752,1.33191-.24322.86341,4.72711-1.332.24329Z" transform="translate(-121.29102 -90.17865)"/><rect class="cls-1" x="139.21447" y="103.80189" width="2.27235" height="0.45896" transform="translate(-137.7023 -63.26101) rotate(-10.35344)"/><rect class="cls-1" x="139.49825" y="105.35399" width="2.27227" height="0.45949" transform="translate(-137.96666 -63.20477) rotate(-10.34614)"/></g></svg>