<svg id="icons" xmlns="http://www.w3.org/2000/svg" viewBox="0 0 14.92151 26.43825"><defs><style>.cls-1{fill:#4d4d4e;}</style></defs><title>worspace 3</title><g id="Workspace_3" data-name="Workspace 3"><path class="cls-1" d="M180.69757,94.2936H166.52606v12.01025a2.65328,2.65328,0,0,0,2.65027,2.65027h9.621a2.65326,2.65326,0,0,0,2.65021-2.65027V94.2936Zm0,12.01025a1.90024,1.90024,0,0,1-1.90021,1.90027h-9.621a1.90026,1.90026,0,0,1-1.90027-1.90027V95.0436h13.42151Z" transform="translate(-166.52606 -82.51587)"/><path class="cls-1" d="M168.52881,84.08046l-.00275.00031.04419.82226h.00006l.48639,9.03009h.235l-.48761-9.05231.325-.03106.48914,9.08337h.23529l-.49042-9.10571.24542-.02344.22961-.02185.4928,9.151h.23529l-.49408-9.17334.34088-.03253.49579,9.20587h.235l-.51373-9.53937-.02747-.5111-.00293.00024c-.00024-.01337.00159-.02594.00085-.03955l-.03979-.73761c-.0188-.34924-.246-.61108-.51068-.5885l-1.08753.10364a.65031.65031,0,0,0-.47589.73175l.03711.68914C168.52454,84.05513,168.52759,84.06728,168.52881,84.08046Zm1.86749.33557-.8045.07678-.80445.07679-.0108-.19989,1.609-.15363Zm-1.41681-1.4837,1.08747-.10364.01745-.00092a.28549.28549,0,0,1,.24225.30054l.03986.73694v.00031l-1.60871.15332-.03711-.68848A.35341.35341,0,0,1,168.97949,82.93233Z" transform="translate(-166.52606 -82.51587)"/><path class="cls-1" d="M173.145,86.56831l-1.59436-2.77648-.00037.00012c-.02081-.0893-.06793-.155-.10681-.14636-.03937.00878-.05487.09-.03455.18127l.00171.00409-.26678,3.18231Z" transform="translate(-166.52606 -82.51587)"/><rect class="cls-1" x="1.84637" y="15.49446" width="0.75" height="5.90039"/><rect class="cls-1" x="1.84637" y="22.36067" width="0.75" height="1.53076"/><rect class="cls-1" x="3.24774" y="17.3929" width="0.75" height="6.49854"/><path class="cls-1" d="M171.26715,87.56783l1.41547,6.36523h1.66461v.00006h3.18695c.27106-1.90314.54248-3.80871.81653-5.73327.355.04327.64087.07806,1.01837.124-.223,1.40979-.439,2.77685-.65558,4.14386-.053.33478-.07184.66876.3739.72418a.68818.68818,0,0,0,.084.00543c.33221,0,.40649-.28265.44964-.57281q.19218-1.295.38337-2.59021c.14813-1.00061.32074-1.99878.42419-3.004.02063-.20087-.222-.42877-.34338-.64423a3.73992,3.73992,0,0,0-.53559.50489,1.42116,1.42116,0,0,0-.12024.50927c-.32238-.0556-.59057-.10193-.87646-.15112.03992-.51831.11566-.98993.10364-1.45923A1.332,1.332,0,0,0,177.50433,84.36a2.18561,2.18561,0,0,0-.39013-.03754,1.32484,1.32484,0,0,0-1.30463.97437,6.79643,6.79643,0,0,0-.34424,1.37927c-.29584,1.881-.56408,3.76642-.85248,5.64856-.0252.16468-.05358.32178-.08.48468l-1.26062-5.6687Zm3.96265,4.85144q.1831-1.19486.359-2.39087c.16131-1.08557.32263-2.17115.4931-3.25525a6.11115,6.11115,0,0,1,.31018-1.252c.18359-.4768.42151-.57446.72211-.57446a1.56965,1.56965,0,0,1,.27844.02747c.32281.05871.62384.20007.64.83166a7.55773,7.55773,0,0,1-.09063.89459c-.01642.16132-.05927.33692-.07233.50647l-.05066.29932-.08624.60565-.74024,5.19709h-1.90594Q175.16022,92.86873,175.2298,92.41927Z" transform="translate(-166.52606 -82.51587)"/><polygon class="cls-1" points="4.707 4.9 6.712 4.473 6.664 4.255 4.663 4.7 4.707 4.9"/></g></svg>